<?xml version="1.0" encoding="utf-8"?>
<!-- Generator: Adobe Illustrator 21.0.2, SVG Export Plug-In . SVG Version: 6.00 Build 0)  -->
<svg version="1.1" id="Layer_1" xmlns="http://www.w3.org/2000/svg" xmlns:xlink="http://www.w3.org/1999/xlink" x="0px" y="0px"
	 viewBox="0 0 612 792" style="enable-background:new 0 0 612 792;" xml:space="preserve">
<style type="text/css">
	.st0{fill:none;stroke:#FFFFFF;stroke-width:0.475;}
</style>
<path class="st0" d="M301.3,386.8v-3.1c0-2.6,2.1-4.7,4.8-4.7c2.6,0,4.8,2.1,4.8,4.7v3.3"/>
<polygon class="st0" points="292.2,391 292.2,392.3 319.2,392.3 319.2,391 306.2,384.7 "/>
<line class="st0" x1="301.3" y1="383.6" x2="310.9" y2="383.6"/>
<polyline class="st0" points="293.8,390.2 293.8,387.6 299.8,387.6 "/>
<polyline class="st0" points="312.3,387.7 318.1,387.7 318.1,390.4 "/>
<path class="st0" d="M304.8,379.1c-5.4,0-9.3,2.8-9.9,5.4l6.3-0.8"/>
<path class="st0" d="M307.1,379c5.4,0,9.3,2.8,9.9,5.4l-6.2-0.7"/>
<polyline class="st0" points="293.4,392.5 293.4,394.6 318.5,394.6 318.5,392.3 "/>
<line class="st0" x1="301.5" y1="394.4" x2="301.5" y2="408.3"/>
<line class="st0" x1="302.9" y1="394.4" x2="302.9" y2="408.3"/>
<line class="st0" x1="309.4" y1="394.4" x2="309.4" y2="408.2"/>
<line class="st0" x1="310.8" y1="394.4" x2="310.8" y2="408.2"/>
<line class="st0" x1="316.5" y1="394.5" x2="316.5" y2="408.4"/>
<line class="st0" x1="317.8" y1="394.5" x2="317.8" y2="408.4"/>
<line class="st0" x1="293.7" y1="394.5" x2="293.7" y2="408.4"/>
<line class="st0" x1="295.1" y1="394.5" x2="295.1" y2="408.4"/>
<rect x="293" y="408.2" class="st0" width="25.5" height="1.4"/>
<rect x="292.1" y="409.6" class="st0" width="27.3" height="1.2"/>
<rect x="291.1" y="410.8" class="st0" width="29.4" height="1.2"/>
<line class="st0" x1="294.8" y1="387.6" x2="294.8" y2="384.4"/>
<line class="st0" x1="317" y1="387.7" x2="317" y2="384.5"/>
<line class="st0" x1="280.8" y1="394.4" x2="280.8" y2="411.2"/>
<polyline class="st0" points="292.2,391 276.7,391 276.7,394.4 "/>
<line class="st0" x1="276.7" y1="394.4" x2="276.7" y2="411.2"/>
<line class="st0" x1="276.6" y1="391.5" x2="273.7" y2="391.5"/>
<polyline class="st0" points="293.5,388.1 286.3,388.1 286.3,391 "/>
<line class="st0" x1="273.8" y1="391.2" x2="273.7" y2="411.5"/>
<line class="st0" x1="273.6" y1="411.3" x2="291.2" y2="411.3"/>
<line class="st0" x1="273.6" y1="394.3" x2="293.5" y2="394.3"/>
<line class="st0" x1="330.7" y1="394.5" x2="330.7" y2="411.3"/>
<polyline class="st0" points="319.3,391 334.8,391 334.8,394.5 "/>
<line class="st0" x1="334.8" y1="394.5" x2="334.8" y2="411.3"/>
<line class="st0" x1="335" y1="391.6" x2="337.8" y2="391.6"/>
<polyline class="st0" points="318,388.2 325.3,388.2 325.3,391 "/>
<line class="st0" x1="337.8" y1="391.3" x2="337.8" y2="411.5"/>
<line class="st0" x1="338" y1="411.4" x2="320.4" y2="411.4"/>
<line class="st0" x1="337.8" y1="394.4" x2="318" y2="394.4"/>
<path class="st0" d="M308.4,389.9c0-1.2-1-2.2-2.2-2.2c-1.2,0-2.2,1-2.2,2.2H308.4z"/>
<rect x="284.5" y="397.6" class="st0" width="5.1" height="9.9"/>
<line class="st0" x1="287.1" y1="397.6" x2="287.1" y2="407.2"/>
<line class="st0" x1="284.5" y1="402.5" x2="289.6" y2="402.5"/>
<line class="st0" x1="284.3" y1="400.1" x2="289.7" y2="400.1"/>
<line class="st0" x1="284.5" y1="404.9" x2="289.6" y2="404.9"/>
<rect x="321.8" y="397.5" class="st0" width="5.1" height="9.9"/>
<line class="st0" x1="324.5" y1="397.5" x2="324.5" y2="407.1"/>
<line class="st0" x1="321.8" y1="402.4" x2="327" y2="402.4"/>
<line class="st0" x1="321.7" y1="400" x2="327.1" y2="400"/>
<line class="st0" x1="321.8" y1="404.8" x2="327" y2="404.8"/>
<polyline class="st0" points="303,398.4 306.3,396.1 309.3,398.2 "/>
<line class="st0" x1="302.8" y1="398.6" x2="309.6" y2="398.6"/>
<polyline class="st0" points="304,398.8 304,406.9 308.5,406.9 308.5,398.7 "/>
</svg>
